# xmcd
#
# Track frame offsets: 
#        150
#        11934
#        31205
#        47221
#        60450
#        81244
#        100222
#        118705
#        139451
#        153800
#        171344
#        189418
#        203616
#        216544
#        230356
#        246193
#        261631
#        278504
#        292560
#        311720
#
# Disc length: 4413 seconds
#
# Revision: 1
# Processed by: cddbd v1.5.2PL0 Copyright (c) Steve Scherf et al.
# Submitted via: ExactAudioCopy v0.99pb5
#
DISCID=23113b14
DTITLE=algérie - voix éternelles
DYEAR=1900
DGENRE=
TTITLE0=1
TTITLE1=2
TTITLE2=3
TTITLE3=hadj mohammed el anka - ya sahbi
TTITLE4=dahmane el harrachi - ya rayah
TTITLE5=6
TTITLE6=ait menguellet - dir iyi
TTITLE7=slimane azem - baba ghayou
TTITLE8=9
TTITLE9=10
TTITLE10=11
TTITLE11=12
TTITLE12=13
TTITLE13=14
TTITLE14=15
TTITLE15=16
TTITLE16=17
TTITLE17=18
TTITLE18=19
TTITLE19=20
EXTD=
EXTT0=
EXTT1=
EXTT2=
EXTT3=
EXTT4=
EXTT5=
EXTT6=
EXTT7=
EXTT8=
EXTT9=
EXTT10=
EXTT11=
EXTT12=
EXTT13=
EXTT14=
EXTT15=
EXTT16=
EXTT17=
EXTT18=
EXTT19=
PLAYORDER=
